<svg viewBox="0 0 64 64" width="64" height="64" xmlns="http://www.w3.org/2000/svg" fill-opacity="1">
  <path d="M32 0A4 4 90 0032 64 4 4 90 0032 0" fill="#fff"></path>
  <path d="M52 12 48 24 32 40 24 32 40 16 52 12M40 16 40 23 29 35 41 24 48 24 42 23 52 12 41 22 40 16M32 40 36 44 32 44 27 42 19 50 14 45 22 37 20 32 20 28 32 40M24 32 32 40 29 35 24 32 32 40M20 32 25 39 32 44 20 32M22 37 23 41 27 42 24 40 22 37M14 45 16 48 19 50 17 47 14 45M14 45 19 50 14 50 14 45M18 47 23 41 17 46 14 50 18 47" fill="#333"></path>
</svg>
