<svg viewBox="0 0 64 64" width="64" height="64" xmlns="http://www.w3.org/2000/svg" fill-opacity="1">
  <path d="M32 0A4 4 90 0032 64 4 4 90 0032 0" fill="#fff"></path>
  <path d="M13 35Q21 45 44 45L44 43Q21 42 14 33L13 35M15 32 24 16 35 22 32 27Q31 28 33 29 44 31 44 42 21 41 15 32M10 45 56 46 31 48 10 45M33 29 28 37 32 33 33 29M31 28 24 33 29 32 31 28M31 26 22 29 27 29 31 26M36 23 41 24 41 25 36 23M35 25 40 27 39 28 35 25M22 17 19 15 18 16 22 17M21 19 16 18 16 19 21 19" fill="#333"></path>
</svg>
